<svg xmlns="http://www.w3.org/2000/svg" xmlns:xlink="http://www.w3.org/1999/xlink" width="100" zoomAndPan="magnify" viewBox="0 0 75 30.000001" height="40" preserveAspectRatio="xMidYMid meet" version="1.0"><defs><clipPath id="0d1c59ca37"><path d="M 4.535156 0 L 70.582031 0 L 70.582031 29.03125 L 4.535156 29.03125 Z M 4.535156 0 " clip-rule="nonzero"/></clipPath></defs><g clip-path="url(#0d1c59ca37)"><path fill="#00adef" d="M 30.777344 3.363281 L 30.777344 9.460938 L 4.566406 11.480469 L 38.121094 11.480469 L 30.777344 12.691406 L 30.777344 15.433594 L 10.292969 17.011719 L 43.847656 17.011719 L 30.777344 18.75 L 30.777344 23.257812 L 11.589844 24.734375 L 45.144531 24.734375 L 30.777344 26.273438 C 30.777344 27.796875 31.996094 29.03125 33.5 29.03125 L 67.832031 29.03125 C 69.335938 29.03125 70.550781 27.796875 70.550781 26.273438 L 70.550781 3.363281 L 50.664062 17.335938 Z M 70.550781 0 L 30.777344 0 L 50.664062 13.96875 Z M 70.550781 0 " fill-opacity="1" fill-rule="nonzero"/></g></svg>