<svg xmlns="http://www.w3.org/2000/svg" xmlns:xlink="http://www.w3.org/1999/xlink" width="160" zoomAndPan="magnify" viewBox="0 0 120 30.000001" height="40" preserveAspectRatio="xMidYMid meet" version="1.0"><defs><g/><clipPath id="a76fab4e6b"><path d="M 1.933594 7.132812 L 36.078125 7.132812 L 36.078125 22 L 1.933594 22 Z M 1.933594 7.132812 " clip-rule="nonzero"/></clipPath></defs><g clip-path="url(#a76fab4e6b)"><path fill="#00adef" d="M 15.5 8.855469 L 15.5 11.976562 L 1.949219 13.011719 L 19.296875 13.011719 L 15.5 13.632812 L 15.5 15.035156 L 4.910156 15.84375 L 22.257812 15.84375 L 15.5 16.734375 L 15.5 19.039062 L 5.582031 19.796875 L 22.925781 19.796875 L 15.5 20.585938 C 15.5 21.367188 16.132812 21.996094 16.90625 21.996094 L 34.65625 21.996094 C 35.433594 21.996094 36.0625 21.367188 36.0625 20.585938 L 36.0625 8.855469 L 25.78125 16.007812 Z M 36.0625 7.132812 L 15.5 7.132812 L 25.78125 14.285156 Z M 36.0625 7.132812 " fill-opacity="1" fill-rule="nonzero"/></g><g fill="#1c2a4e" fill-opacity="1"><g transform="translate(39.978653, 19.269289)"><g><path d="M 2.890625 -8 L 2.890625 -5.5 L 5.6875 -5.5 L 5.6875 -3.984375 L 2.890625 -3.984375 L 2.890625 0 L 1.140625 0 L 1.140625 -9.5 L 6.109375 -9.5 L 6.109375 -8 Z M 2.890625 -8 "/></g></g></g><g fill="#1c2a4e" fill-opacity="1"><g transform="translate(46.711156, 19.269289)"><g><path d="M 5.703125 -1.5 L 5.703125 0 L 1.140625 0 L 1.140625 -9.5 L 2.875 -9.5 L 2.875 -1.5 Z M 5.703125 -1.5 "/></g></g></g><g fill="#1c2a4e" fill-opacity="1"><g transform="translate(53.184719, 19.269289)"><g><path d="M 5.578125 -1.375 L 2.1875 -1.375 L 1.671875 0 L -0.234375 0 L 3.78125 -9.65625 L 3.921875 -9.65625 L 7.953125 0 L 6.109375 0 Z M 5.0625 -2.703125 L 4.078125 -5.28125 L 3.84375 -6.046875 L 3.625 -5.28125 L 2.671875 -2.703125 Z M 5.0625 -2.703125 "/></g></g></g><g fill="#1c2a4e" fill-opacity="1"><g transform="translate(61.320926, 19.269289)"><g><path d="M 3.453125 0.15625 C 3.035156 0.15625 2.640625 0.101562 2.265625 0 C 1.890625 -0.101562 1.5625 -0.234375 1.28125 -0.390625 C 1 -0.546875 0.773438 -0.710938 0.609375 -0.890625 L 1.3125 -2.3125 C 1.414062 -2.175781 1.570312 -2.03125 1.78125 -1.875 C 2 -1.726562 2.242188 -1.597656 2.515625 -1.484375 C 2.785156 -1.378906 3.0625 -1.328125 3.34375 -1.328125 C 3.695312 -1.328125 3.992188 -1.425781 4.234375 -1.625 C 4.484375 -1.820312 4.609375 -2.097656 4.609375 -2.453125 C 4.609375 -2.679688 4.550781 -2.878906 4.4375 -3.046875 C 4.320312 -3.222656 4.171875 -3.378906 3.984375 -3.515625 C 3.804688 -3.648438 3.523438 -3.832031 3.140625 -4.0625 C 2.617188 -4.375 2.210938 -4.644531 1.921875 -4.875 C 1.628906 -5.101562 1.375 -5.398438 1.15625 -5.765625 C 0.9375 -6.128906 0.828125 -6.566406 0.828125 -7.078125 C 0.828125 -7.585938 0.9375 -8.035156 1.15625 -8.421875 C 1.375 -8.804688 1.691406 -9.109375 2.109375 -9.328125 C 2.535156 -9.546875 3.046875 -9.65625 3.640625 -9.65625 C 4.609375 -9.65625 5.414062 -9.363281 6.0625 -8.78125 L 5.296875 -7.390625 C 5.222656 -7.492188 5.109375 -7.609375 4.953125 -7.734375 C 4.796875 -7.867188 4.609375 -7.984375 4.390625 -8.078125 C 4.171875 -8.171875 3.941406 -8.21875 3.703125 -8.21875 C 3.359375 -8.21875 3.085938 -8.113281 2.890625 -7.90625 C 2.703125 -7.707031 2.609375 -7.457031 2.609375 -7.15625 C 2.609375 -6.925781 2.664062 -6.71875 2.78125 -6.53125 C 2.894531 -6.351562 3.046875 -6.191406 3.234375 -6.046875 C 3.421875 -5.910156 3.671875 -5.75 3.984375 -5.5625 C 4.566406 -5.21875 5.007812 -4.929688 5.3125 -4.703125 C 5.613281 -4.472656 5.867188 -4.175781 6.078125 -3.8125 C 6.285156 -3.457031 6.390625 -3.019531 6.390625 -2.5 C 6.390625 -1.957031 6.269531 -1.484375 6.03125 -1.078125 C 5.800781 -0.679688 5.460938 -0.375 5.015625 -0.15625 C 4.578125 0.0507812 4.054688 0.15625 3.453125 0.15625 Z M 3.453125 0.15625 "/></g></g></g><g fill="#1c2a4e" fill-opacity="1"><g transform="translate(68.598557, 19.269289)"><g><path d="M 7.8125 -9.5 L 7.8125 0 L 6.03125 0 L 6.03125 -4.03125 L 2.90625 -4.03125 L 2.90625 0 L 1.140625 0 L 1.140625 -9.5 L 2.90625 -9.5 L 2.90625 -5.53125 L 6.03125 -5.53125 L 6.03125 -9.5 Z M 7.8125 -9.5 "/></g></g></g><g fill="#1c2a4e" fill-opacity="1"><g transform="translate(77.961308, 19.269289)"><g/></g></g><g fill="#1c2a4e" fill-opacity="1"><g transform="translate(80.959669, 19.269289)"><g><path d="M 6.328125 -1.546875 L 6.328125 0 L 1.109375 0 L 1.109375 -9.5 L 6.0625 -9.5 L 6.0625 -8.015625 L 2.8125 -8.015625 L 2.8125 -5.796875 L 5.390625 -5.796875 L 5.390625 -4.34375 L 2.8125 -4.34375 L 2.8125 -1.546875 Z M 6.328125 -1.546875 "/></g></g></g><g fill="#1c2a4e" fill-opacity="1"><g transform="translate(88.264553, 19.269289)"><g><path d="M 9.09375 -9.65625 L 9.09375 0 L 7.40625 0 L 7.40625 -4.078125 L 7.453125 -5.6875 L 6.96875 -4.953125 L 5.109375 -2.75 L 3.25 -4.953125 L 2.765625 -5.6875 L 2.828125 -4.078125 L 2.828125 0 L 1.140625 0 L 1.140625 -9.65625 L 1.28125 -9.65625 L 5.125 -5.125 L 8.9375 -9.65625 Z M 9.09375 -9.65625 "/></g></g></g><g fill="#1c2a4e" fill-opacity="1"><g transform="translate(98.908355, 19.269289)"><g><path d="M 5.578125 -1.375 L 2.1875 -1.375 L 1.671875 0 L -0.234375 0 L 3.78125 -9.65625 L 3.921875 -9.65625 L 7.953125 0 L 6.109375 0 Z M 5.0625 -2.703125 L 4.078125 -5.28125 L 3.84375 -6.046875 L 3.625 -5.28125 L 2.671875 -2.703125 Z M 5.0625 -2.703125 "/></g></g></g><g fill="#1c2a4e" fill-opacity="1"><g transform="translate(107.04456, 19.269289)"><g><path d="M 1.109375 -9.5 L 2.84375 -9.5 L 2.84375 0 L 1.109375 0 Z M 1.109375 -9.5 "/></g></g></g><g fill="#1c2a4e" fill-opacity="1"><g transform="translate(111.405752, 19.269289)"><g><path d="M 5.703125 -1.5 L 5.703125 0 L 1.140625 0 L 1.140625 -9.5 L 2.875 -9.5 L 2.875 -1.5 Z M 5.703125 -1.5 "/></g></g></g></svg>